<svg
    xmlns="http://www.w3.org/2000/svg"
    xmlns:xlink="http://www.w3.org/1999/xlink"
    version="1.1"
    id="Layer_1"
    width="11000"
    height="3300"
    viewBox="0 0 550 165"
    xml:space="preserve"
>
<rect fill="#060" width="75%" height="93%" />

<g transform="translate(-150, 0)">
>
	<g>
		<g id="XMLID_4_">
			<g>
				<rect x="488.647" y="71.917" fill="#f00" width="26.914" height="33.35" />
				<rect x="488.647" y="38.614" width="26.914" height="33.303" />
				<rect x="488.647" y="5.264" fill="#f00" width="26.914" height="33.35" />
				<rect x="461.731" y="71.917" width="26.916" height="33.35" />
				<rect x="461.731" y="38.614" fill="#f00" width="26.916" height="33.303" />
				<rect x="461.731" y="5.264" width="26.916" height="33.35" />
				<rect x="434.817" y="71.917" fill="#f00" width="26.914" height="33.35" />
				<rect x="434.817" y="38.614" width="26.914" height="33.303" />
				<rect x="434.817" y="5.264" fill="#f00" width="26.914" height="33.35" />
				<rect x="407.901" y="71.917" fill="#f00" width="26.916" height="33.35" />
				<rect x="407.901" y="38.614" width="26.916" height="33.303" />
				<rect x="407.901" y="5.264" fill="#f00" width="26.916" height="33.35" />
				<rect x="380.977" y="71.917" width="26.924" height="33.35" />
				<rect x="380.977" y="38.614" fill="#f00" width="26.924" height="33.303" />
				<rect x="380.977" y="5.264" width="26.924" height="33.35" />
				<rect x="353.977" y="71.917" width="27" height="33.35" />
				<rect x="353.977" y="38.614" width="27" height="33.303" />
				<rect x="353.977" y="5.264" fill="#f00" width="27" height="33.35" />
				<rect x="327.063" y="71.917" fill="#f00" width="26.914" height="33.35" />
				<rect x="327.063" y="38.614" width="26.914" height="33.303" />
				<rect x="327.063" y="5.264" fill="#f00" width="26.914" height="33.35" />
				<rect x="300.147" y="71.917" width="26.916" height="33.35" />
				<rect x="300.147" y="38.614" fill="#f00" width="26.916" height="33.303" />
				<rect x="300.147" y="5.264" width="26.916" height="33.35" />
				<rect x="273.233" y="71.917" width="26.914" height="33.35" />
				<rect x="273.233" y="38.614" width="26.914" height="33.303" />
				<rect x="273.233" y="5.264" fill="#f00" width="26.914" height="33.35" />
				<rect x="246.317" y="71.917" fill="#f00" width="26.916" height="33.35" />
				<rect x="246.317" y="38.614" width="26.916" height="33.303" />
				<rect x="246.317" y="5.264" fill="#f00" width="26.916" height="33.35" />
				<rect x="219.401" y="71.917" width="26.916" height="33.35" />
				<rect x="219.401" y="38.614" fill="#f00" width="26.916" height="33.303" />
				<rect x="219.401" y="5.264" width="26.916" height="33.35" />
				<rect x="192.477" y="71.917" fill="#f00" width="26.925" height="33.35" />
				<rect x="192.477" y="38.614" width="26.925" height="33.303" />
				<rect x="192.477" y="5.264" fill="#f00" width="26.925" height="33.35" />
			</g>
			<g>
				<polygon
                        fill="none"
                        stroke="#fff"
                        points="192.477,38.614 192.477,5.264 219.401,5.264 246.317,5.264 273.233,5.264       300.147,5.264 327.063,5.264 353.977,5.264 380.977,5.264 407.901,5.264 434.817,5.264 461.731,5.264 488.647,5.264       515.561,5.264 542.477,5.264 542.477,38.614 542.477,71.917 542.477,105.266 515.561,105.266 488.647,105.266 461.731,105.266       434.817,105.266 407.901,105.266 380.977,105.266 353.977,105.266 327.063,105.266 300.147,105.266 273.233,105.266       246.317,105.266 219.401,105.266 192.477,105.266 192.477,71.917"
                    />
				<polyline
                        fill="none"
                        stroke="#fff"
                        points="192.477,71.917 219.401,71.917 246.317,71.917 273.233,71.917 300.147,71.917       327.063,71.917 353.977,71.917 380.977,71.917 407.901,71.917 434.817,71.917 461.731,71.917 488.647,71.917 515.561,71.917       542.477,71.917"
                    />
				<polyline
                        fill="none"
                        stroke="#fff"
                        points="192.477,38.614 219.401,38.614 246.317,38.614 273.233,38.614 300.147,38.614       327.063,38.614 353.977,38.614 380.977,38.614 407.901,38.614 434.817,38.614 461.731,38.614 488.647,38.614 515.561,38.614       542.477,38.614"
                    />
				<polyline
                        fill="none"
                        stroke="#fff"
                        points="515.561,5.264 515.561,38.614 515.561,71.917 515.561,105.266"
                    />
				<polyline
                        fill="none"
                        stroke="#fff"
                        points="488.647,5.264 488.647,38.614 488.647,71.917 488.647,105.266"
                    />
				<polyline
                        fill="none"
                        stroke="#fff"
                        points="461.731,5.264 461.731,38.614 461.731,71.917 461.731,105.266"
                    />
				<polyline
                        fill="none"
                        stroke="#fff"
                        points="434.817,5.264 434.817,38.614 434.817,71.917 434.817,105.266"
                    />
				<polyline
                        fill="none"
                        stroke="#fff"
                        points="407.901,5.264 407.901,38.614 407.901,71.917 407.901,105.266"
                    />
				<polyline
                        fill="none"
                        stroke="#fff"
                        points="380.977,5.264 380.977,38.614 380.977,71.917 380.977,105.266"
                    />
				<polyline
                        fill="none"
                        stroke="#fff"
                        points="353.977,5.264 353.977,38.614 353.977,71.917 353.977,105.266"
                    />
				<polyline
                        fill="none"
                        stroke="#fff"
                        points="327.063,5.264 327.063,38.614 327.063,71.917 327.063,105.266"
                    />
				<polyline
                        fill="none"
                        stroke="#fff"
                        points="300.147,5.264 300.147,38.614 300.147,71.917 300.147,105.266"
                    />
				<polyline
                        fill="none"
                        stroke="#fff"
                        points="273.233,5.264 273.233,38.614 273.233,71.917 273.233,105.266"
                    />
				<polyline
                        fill="none"
                        stroke="#fff"
                        points="246.317,5.264 246.317,38.614 246.317,71.917 246.317,105.266"
                    />
				<polyline
                        fill="none"
                        stroke="#fff"
                        points="219.401,5.264 219.401,38.614 219.401,71.917 219.401,105.266"
                    />
			</g>
		</g>
		<g>
			<path
                    fill="none"
                    stroke="#fff"
                    d="M192.083,55.265c-6.813,0-13.626,0-20.439,0l-6.561-25.5l6.561-24.5     c6.813,0,13.626,0,20.439,0"
                />
			<path
                    fill="none"
                    stroke="#fff"
                    d="M192.083,105.266c-6.813,0-13.626,0-20.439,0l-6.561-25.501l6.561-24.5     c6.813,0,13.626,0,20.439,0"
                />
		</g>
		<g>
			<g>
				<g id="XMLID_5_">
					<g>
						<rect x="353.647" y="125.563" width="53.859" height="20" />
						<rect x="299.788" y="125.563" fill="#f00" width="53.859" height="20" />
					</g>
					<g>
						<polygon
                                fill="none"
                                stroke="#fff"
                                points="192.146,125.563 192.146,105.563 299.788,105.563 407.506,105.563         515.147,105.563 515.147,125.563 515.147,145.563 461.288,145.563 407.506,145.563 353.647,145.563 299.788,145.563         246.006,145.563 192.146,145.563       "
                            />
						<polyline
                                fill="none"
                                stroke="#fff"
                                points="192.146,125.563 246.006,125.563 299.788,125.563 353.647,125.563         407.506,125.563 461.288,125.563 515.147,125.563       "
                            />
						<line
                                fill="none"
                                stroke="#fff"
                                x1="461.288"
                                y1="125.563"
                                x2="461.288"
                                y2="145.563"
                            />
						<polyline
                                fill="none"
                                stroke="#fff"
                                points="407.506,105.563 407.506,125.563 407.506,145.563       "
                            />
						<line
                                fill="none"
                                stroke="#fff"
                                x1="353.647"
                                y1="125.563"
                                x2="353.647"
                                y2="145.563"
                            />
						<polyline
                                fill="none"
                                stroke="#fff"
                                points="299.788,105.563 299.788,125.563 299.788,145.563       "
                            />
						<line
                                fill="none"
                                stroke="#fff"
                                x1="246.006"
                                y1="125.563"
                                x2="246.006"
                                y2="145.563"
                            />
					</g>
				</g>
			</g>
		</g>
	</g>
	<g>
			<text
                transform="matrix(-4.371139e-008 -1 1 -4.371139e-008 185.2476 85.5403)"
                fill="#fff"
                font-family="'Verdana'"
                font-size="14"
            >0</text>
			<text
                transform="matrix(-4.371139e-008 -1 1 -4.371139e-008 185.2476 40.0403)"
                fill="#fff"
                font-family="'Verdana'"
                font-size="14"
            >00</text>
			<text
                transform="matrix(-4.371139e-008 -1 1 -4.371139e-008 210.5728 93.2278)"
                fill="#fff"
                font-family="'Verdana'"
                font-size="14"
            >1</text>
			<text
                transform="matrix(-4.371139e-008 -1 1 -4.371139e-008 210.5728 60.1829)"
                fill="#fff"
                font-family="'Verdana'"
                font-size="14"
            >2</text>
			<text
                transform="matrix(-4.371139e-008 -1 1 -4.371139e-008 210.5728 26.5012)"
                fill="#fff"
                font-family="'Verdana'"
                font-size="14"
            >3</text>
			<text
                transform="matrix(-4.371139e-008 -1 1 -4.371139e-008 238.2407 93.2278)"
                fill="#fff"
                font-family="'Verdana'"
                font-size="14"
            >4</text>
			<text
                transform="matrix(-4.371139e-008 -1 1 -4.371139e-008 238.2407 26.5012)"
                fill="#fff"
                font-family="'Verdana'"
                font-size="14"
            >6</text>
			<text
                transform="matrix(-4.371139e-008 -1 1 -4.371139e-008 238.2407 60.1829)"
                fill="#fff"
                font-family="'Verdana'"
                font-size="14"
            >5</text>
			<text
                transform="matrix(-4.371139e-008 -1 1 -4.371139e-008 264.6743 93.2278)"
                fill="#fff"
                font-family="'Verdana'"
                font-size="14"
            >7</text>
			<text
                transform="matrix(-4.371139e-008 -1 1 -4.371139e-008 264.6743 60.1829)"
                fill="#fff"
                font-family="'Verdana'"
                font-size="14"
            >8</text>
			<text
                transform="matrix(-4.371139e-008 -1 1 -4.371139e-008 264.6743 26.5012)"
                fill="#fff"
                font-family="'Verdana'"
                font-size="14"
            >9</text>
			<text
                transform="matrix(-4.371139e-008 -1 1 -4.371139e-008 291.3423 97.679)"
                fill="#fff"
                font-family="'Verdana'"
                font-size="14"
            >10</text>
			<text
                transform="matrix(-4.371139e-008 -1 1 -4.371139e-008 291.3423 30.9524)"
                fill="#fff"
                font-family="'Verdana'"
                font-size="14"
            >12</text>
			<text
                transform="matrix(-4.371139e-008 -1 1 -4.371139e-008 291.3423 64.634)"
                fill="#fff"
                font-family="'Verdana'"
                font-size="14"
            >11</text>
			<text
                transform="matrix(-4.371139e-008 -1 1 -4.371139e-008 318.9966 97.679)"
                fill="#fff"
                font-family="'Verdana'"
                font-size="14"
            >13</text>
			<text
                transform="matrix(-4.371139e-008 -1 1 -4.371139e-008 318.9966 64.634)"
                fill="#fff"
                font-family="'Verdana'"
                font-size="14"
            >14</text>
			<text
                transform="matrix(-4.371139e-008 -1 1 -4.371139e-008 318.9966 30.9524)"
                fill="#fff"
                font-family="'Verdana'"
                font-size="14"
            >15</text>
			<text
                transform="matrix(-4.371139e-008 -1 1 -4.371139e-008 345.6655 97.679)"
                fill="#fff"
                font-family="'Verdana'"
                font-size="14"
            >16</text>
			<text
                transform="matrix(-4.371139e-008 -1 1 -4.371139e-008 345.6655 30.9524)"
                fill="#fff"
                font-family="'Verdana'"
                font-size="14"
            >18</text>
			<text
                transform="matrix(-4.371139e-008 -1 1 -4.371139e-008 345.6655 64.634)"
                fill="#fff"
                font-family="'Verdana'"
                font-size="14"
            >17</text>
			<text
                transform="matrix(-4.371139e-008 -1 1 -4.371139e-008 372.6538 97.679)"
                fill="#fff"
                font-family="'Verdana'"
                font-size="14"
            >19</text>
			<text
                transform="matrix(-4.371139e-008 -1 1 -4.371139e-008 372.6538 64.634)"
                fill="#fff"
                font-family="'Verdana'"
                font-size="14"
            >20</text>
			<text
                transform="matrix(-4.371139e-008 -1 1 -4.371139e-008 372.6538 30.9524)"
                fill="#fff"
                font-family="'Verdana'"
                font-size="14"
            >21</text>
			<text
                transform="matrix(-4.371139e-008 -1 1 -4.371139e-008 399.3228 97.679)"
                fill="#fff"
                font-family="'Verdana'"
                font-size="14"
            >22</text>
			<text
                transform="matrix(-4.371139e-008 -1 1 -4.371139e-008 399.3228 30.9524)"
                fill="#fff"
                font-family="'Verdana'"
                font-size="14"
            >24</text>
			<text
                transform="matrix(-4.371139e-008 -1 1 -4.371139e-008 399.3228 64.634)"
                fill="#fff"
                font-family="'Verdana'"
                font-size="14"
            >23</text>
			<text
                transform="matrix(-4.371139e-008 -1 1 -4.371139e-008 426.7544 97.679)"
                fill="#fff"
                font-family="'Verdana'"
                font-size="14"
            >25</text>
			<text
                transform="matrix(-4.371139e-008 -1 1 -4.371139e-008 426.7554 64.634)"
                fill="#fff"
                font-family="'Verdana'"
                font-size="14"
            >26</text>
			<text
                transform="matrix(-4.371139e-008 -1 1 -4.371139e-008 426.7544 30.9524)"
                fill="#fff"
                font-family="'Verdana'"
                font-size="14"
            >27</text>
			<text
                transform="matrix(-4.371139e-008 -1 1 -4.371139e-008 453.4233 97.679)"
                fill="#fff"
                font-family="'Verdana'"
                font-size="14"
            >28</text>
			<text
                transform="matrix(-4.371139e-008 -1 1 -4.371139e-008 453.4233 30.9524)"
                fill="#fff"
                font-family="'Verdana'"
                font-size="14"
            >30</text>
			<text
                transform="matrix(-4.371139e-008 -1 1 -4.371139e-008 453.4243 64.634)"
                fill="#fff"
                font-family="'Verdana'"
                font-size="14"
            >29</text>
			<text
                transform="matrix(-4.371139e-008 -1 1 -4.371139e-008 479.9644 97.679)"
                fill="#fff"
                font-family="'Verdana'"
                font-size="14"
            >31</text>
			<text
                transform="matrix(-4.371139e-008 -1 1 -4.371139e-008 479.9653 64.634)"
                fill="#fff"
                font-family="'Verdana'"
                font-size="14"
            >32</text>
			<text
                transform="matrix(-4.371139e-008 -1 1 -4.371139e-008 479.9644 30.9524)"
                fill="#fff"
                font-family="'Verdana'"
                font-size="14"
            >33</text>
			<text
                transform="matrix(-4.371139e-008 -1 1 -4.371139e-008 506.6333 97.679)"
                fill="#fff"
                font-family="'Verdana'"
                font-size="14"
            >34</text>
			<text
                transform="matrix(-4.371139e-008 -1 1 -4.371139e-008 506.6333 30.9524)"
                fill="#fff"
                font-family="'Verdana'"
                font-size="14"
            >36</text>
			<text
                transform="matrix(-4.371139e-008 -1 1 -4.371139e-008 506.6343 64.634)"
                fill="#fff"
                font-family="'Verdana'"
                font-size="14"
            >35</text>
			<text
                transform="matrix(-4.371139e-008 -1 1 -4.371139e-008 533.7954 34.1301)"
                fill="#fff"
                font-family="'Verdana'"
                font-size="14"
            >2-1</text>
			<text
                transform="matrix(-4.371139e-008 -1 1 -4.371139e-008 533.7954 100.8567)"
                fill="#fff"
                font-family="'Verdana'"
                font-size="14"
            >2-1</text>
			<text
                transform="matrix(-4.371139e-008 -1 1 -4.371139e-008 533.7954 67.8118)"
                fill="#fff"
                font-family="'Verdana'"
                font-size="14"
            >2-1</text>
		<text
                transform="matrix(1 0 0 1 227.0972 120.0349)"
                fill="#fff"
                font-family="'Verdana'"
                font-size="12"
            >1st 12</text>
		<text
                transform="matrix(1 0 0 1 332.7505 120.0349)"
                fill="#fff"
                font-family="'Verdana'"
                font-size="12"
            >2nd 12</text>
		<text
                transform="matrix(1 0 0 1 441.811 120.0339)"
                fill="#fff"
                font-family="'Verdana'"
                font-size="12"
            >3rd 12</text>
		<text
                transform="matrix(1 0 0 1 205.8198 139.8386)"
                fill="#fff"
                font-family="'Verdana'"
                font-size="12"
            >1-18</text>
		<text
                transform="matrix(1 0 0 1 258.7339 139.8386)"
                fill="#fff"
                font-family="'Verdana'"
                font-size="12"
            >Even</text>
		<text
                transform="matrix(1 0 0 1 422.6274 139.8376)"
                fill="#fff"
                font-family="'Verdana'"
                font-size="12"
            >Odd</text>
		<text
                transform="matrix(1 0 0 1 470.4556 139.8386)"
                fill="#fff"
                font-family="'Verdana'"
                font-size="12"
            >19-36</text>
		<text
                transform="matrix(1 0 0 1 316.4204 139.8376)"
                fill="#fff"
                font-family="'Verdana'"
                font-size="12"
            >Red</text>
		<text
                transform="matrix(1 0 0 1 365.979 139.8376)"
                fill="#fff"
                font-family="'Verdana'"
                font-size="12"
            >Black</text>
	</g>
</g>


</svg>
